<svg width="26" height="27" viewBox="0 0 26 27" fill="none" xmlns="http://www.w3.org/2000/svg">
<g filter="url(#filter0_d_102_17)">
<path d="M8 2.5V12.5" stroke="#837E9F" stroke-width="2" stroke-linecap="round" stroke-linejoin="round"/>
<path d="M18 7.5C19.3807 7.5 20.5 6.38071 20.5 5C20.5 3.61929 19.3807 2.5 18 2.5C16.6193 2.5 15.5 3.61929 15.5 5C15.5 6.38071 16.6193 7.5 18 7.5Z" stroke="#837E9F" stroke-width="2" stroke-linecap="round" stroke-linejoin="round"/>
<path d="M8 17.5C9.38071 17.5 10.5 16.3807 10.5 15C10.5 13.6193 9.38071 12.5 8 12.5C6.61929 12.5 5.5 13.6193 5.5 15C5.5 16.3807 6.61929 17.5 8 17.5Z" stroke="#837E9F" stroke-width="2" stroke-linecap="round" stroke-linejoin="round"/>
<path d="M18 7.5C18 9.48912 17.2098 11.3968 15.8033 12.8033C14.3968 14.2098 12.4891 15 10.5 15" stroke="#837E9F" stroke-width="2" stroke-linecap="round" stroke-linejoin="round"/>
</g>
<defs>
<filter id="filter0_d_102_17" x="-1" y="0" width="28" height="28" filterUnits="userSpaceOnUse" color-interpolation-filters="sRGB">
<feFlood flood-opacity="0" result="BackgroundImageFix"/>
<feColorMatrix in="SourceAlpha" type="matrix" values="0 0 0 0 0 0 0 0 0 0 0 0 0 0 0 0 0 0 127 0" result="hardAlpha"/>
<feOffset dy="4"/>
<feGaussianBlur stdDeviation="2"/>
<feComposite in2="hardAlpha" operator="out"/>
<feColorMatrix type="matrix" values="0 0 0 0 0 0 0 0 0 0 0 0 0 0 0 0 0 0 0.25 0"/>
<feBlend mode="normal" in2="BackgroundImageFix" result="effect1_dropShadow_102_17"/>
<feBlend mode="normal" in="SourceGraphic" in2="effect1_dropShadow_102_17" result="shape"/>
</filter>
</defs>
</svg>
